<svg xmlns="http://www.w3.org/2000/svg" version="1.1" xmlns:xlink="http://www.w3.org/1999/xlink" xmlns:svgjs="http://svgjs.com/svgjs" width="1440" height="560" preserveAspectRatio="none" viewBox="0 0 1440 560"><g mask="url(&quot;#SvgjsMask1008&quot;)" fill="none"><rect width="1440" height="560" x="0" y="0" fill="#0e2a47"></rect><path d="M 0,84 C 57.6,114.2 172.8,239.2 288,235 C 403.2,230.8 460.8,73.2 576,63 C 691.2,52.8 748.8,171.2 864,184 C 979.2,196.8 1036.8,123 1152,127 C 1267.2,131 1382.4,188.6 1440,204L1440 560L0 560z" fill="#184a7e"></path><path d="M 0,382 C 41.2,412.2 123.6,548.2 206,533 C 288.4,517.8 329.6,301 412,306 C 494.4,311 535.6,537 618,558 C 700.4,579 741.6,436.6 824,411 C 906.4,385.4 947.6,445.8 1030,430 C 1112.4,414.2 1154,313.2 1236,332 C 1318,350.8 1399.2,485.6 1440,524L1440 560L0 560z" fill="#2264ab"></path></g><defs><mask id="SvgjsMask1008"><rect width="1440" height="560" fill="#ffffff"></rect></mask></defs></svg>